<?xml version="1.0" encoding="UTF-8"?>
<svg id="Layer_1" data-name="Layer 1" xmlns="http://www.w3.org/2000/svg" xmlns:xlink="http://www.w3.org/1999/xlink" viewBox="0 0 509.88 381.79">
  <defs>
    <style>
      .cls-1 {
        fill: none;
      }

      .cls-2 {
        fill: #fff;
      }

      .cls-3 {
        clip-path: url(#clippath);
      }
    </style>
    <clipPath id="clippath">
      <rect class="cls-1" y="30.26" width="454.1" height="305.54"/>
    </clipPath>
  </defs>
  <g class="cls-3">
    <g>
      <path class="cls-2" d="M9.38,304.36c1.44,1.16,2.84-.71,3.91-.78,1.16-.07,3.64.65,5.02.76,5.97.49,11.79.56,17.71.38,10.9-.33,21.72-1.97,32.66-2.39l5.03,18.16.87-.85-3.55-17.33c6.63-1.32,13.37-.68,20.07-.83,24.73-.55,49.25,1.08,74.04,2.03,18.75.72,37.54,1.91,56.26,1.69,23.49-.28,46.01-.06,69.46.83,1.15.04,5.32-.06,3.01-1.98-.47-.39-7.07-.89-8.35-.95-22.49-.98-44.97-.15-67.42.03-41.75.34-83.68-4.69-125.33-4.13-7.39.1-14.74.07-22.1.76l-8.52-90.93c3.68-2.32,7.14-5.08,10.82-7.37,23.06-14.37,46.69-27.88,69.64-42.46,3.3.48,5.53.55,7.2-2.71.36-.72.05-1.59.64-2.26.97-1.12,9.67-5.55,11.73-6.89,12.89-8.4,25.04-18.4,39.16-24.75.36-.49-.81-1.69-1.44-1.65l-49.01,31.68h-.85c-1.05-1.68-1.31-3.32-3.3-4.18-2.14-.92-5.59-.59-6.51,1.76-1.03,2.63-.95,5.89.67,8.24l-.37.74c-4.4,2.63-8.85,5.2-13.2,7.91-19.92,12.38-40.48,23.86-60.15,36.63-1.48.96-3.35,3.16-5.06,3.63-.84.23-.48-.18-.61-.58-1.35-4.44-.8-10.33-1.23-14.91-.38-4-1.24-8.08-1.64-12-1.11-10.85-1.4-29.79-5.28-39.4-.25-.62.24-1.12-.93-.91-.06,4.95,1.41,9.82,2.02,14.73,1.81,14.68,2.97,29.45,4.19,44.2.29,3.46,1.03,6.88,1.24,10.35-.17.87-6.23,5.25-7.48,6.16-2.09,1.53-5.16,3.04-6.96,4.62-.47.41-1.02.64-.86,1.41.55.5,5.04-2.51,5.84-3.05,3.34-2.22,6.48-5.09,9.87-7.29l8.64,89.08c-.17.49-.53.57-.99.65-2.27.39-5.76-.15-8.27,0-12.01.74-24.38,2.82-36.42,2.08-2.31-.14-6.83-1.42-8.66-1.26-1.54.14-1.25,1.79-1.51,2.01s-2.96-.07-3.67.89V54.59l27.92-13.08c.56.09,1.18.38,1.38.95.73,2.12.18,7.13,1.36,8.98.32.5.53.8,1.19.67l-.82-10.33.95.08,53.86,36.72c1.88-.27-.96-2.68-1.48-3.07-8.21-6.15-18.78-11.61-27.41-17.67-5.89-4.14-11.66-8.61-17.24-13.16,8.79,3.07,17.35,6.86,26.07,10.12,5.19,1.94,10.63,3.3,15.81,5.28,8.42,3.22,16.62,7.24,25,10.59l.95-.56-.84-1.22c-17.39-7.98-35.48-14.1-53.45-20.59l-12.71-5.28,150.98,16.95c-.31-.93-1.24-1.19-2.06-1.45-7.83-2.53-21.05-2.88-29.58-3.92-40.95-4.99-82-8.3-122.86-14.05-1.11-.16-2.37.09-3.51,0l86.04-14.48v-1.23c-.88-.02-1.76-.04-2.64.05-5.21.55-11.34,2.39-16.63,3.23-15.93,2.51-31.96,4.41-47.82,7.19-5.79,1.02-11.39,2.89-17.29,3.17l9.41-5.26c23.68-9.79,46.86-21.61,71.22-29.7.31-.76,2.9-.79,2.5-1.62s-1.82-.68-2.59-.53c-8.16,1.62-18.97,7.86-26.83,11.23-15.31,6.55-31.03,12.42-45.94,19.82-4.09,2.03-8.02,4.46-12.12,6.48-.46-.28-.48-.59-.6-1.04-.55-2.02-1.3-5.78-1.63-7.88-1.53-9.87-.52-20.06-2.11-29.94h98.45c-2.41,3.26.26,5.99,3.11,2.9h.59c.19,1.37,3.01,2.94,2.91.83-2.08-.2-2.69-1.84-2.48-3.73h371.45v380.04l-53.36,1.65c-25.63-.24-51.31.32-76.94,0-54.25-.67-109.21-1.36-163.18-2.03-48.58-.61-97.67-1.01-146.41-.02-6.17.13-11.53-1.55-17.41-1.28-13.7.63-27,1.7-40.95,1.28-.79-.02-1.57.04-2.25-.43v-74.85ZM30.47,143.91c-1.46,1.1-2.21-5.52-3.52-5.79l-1.01.61c.84,1.99,1.86,8,4.72,7.66.8-.09,1.04-.98,1.88-.83,1.1,3.01-1.65,2.89-3.07,4.58-3.35,3.97,1.31,9.66,4.3,6.78.93-.9,1.55-5.67.84-7.02l2.07-.39.43-1.27c-.09-1.55-2.02-.64-2.72-1.44-.89-1.02-.4-5.4-3.1-4.8l-.83,1.89ZM74.18,202.46c-2.26,1.15-3.56.79-3.58,4.09-.03,4.22,1.59,7.4,6.32,6.32,3.38-.78,4.37-7.89,1.29-9.79-1.11-.69-2.69-.23-3.69-1.28-.24-.05-.15.57-.34.66ZM96.95,181.42c1.68-1.38,2.81-6.95,1.97-8.97-1.11-2.67-6.89-2.22-8.7-.86-2.4,1.8-1.06,6.73-.4,9.13,1.66,1,5.58,1.97,7.13.7ZM105.63,82.42c-1.36-1.67-3.68-2.74-4.33.17-.91,4.06,1.6,5.84,4.45,2.6.21,1.18,1.2,2.25,2.49,2.07.2-.19-2.38-4.56-2.61-4.83ZM109.78,197.37c-1.89-1.85-7.15-1.68-7.73,1.34-.81,4.2,1.45,7.33,5.9,6.31,2.51-.57,3.5-6.02,1.83-7.65ZM119.91,179.59c.8,3.54,7.6,3.18,8.51-.83,1.42-6.25-7.6-7.26-8.5-2.3-.18.97-.23,2.17,0,3.12ZM121.06,66.99c.9,2.25.3,7.05.89,8.82,1.02,3.03,7.92-.07,2.15-3.83l-1.39.8c-.41-.6.49-5.86-1.66-5.79ZM137.3,24.92c-2.45,2.36-.67,7.07,3.38,6.49.86-.12,4.05-1.42,3.14-2.46-.81-.92-2.9.83-3.93.84-3.56.03-2.7-4.47.62-2.92.6-1.93-1.9-3.21-3.2-1.96ZM192.21,134.81c-2.16-.16-1.93,1.39-.83,2.7,1.74,2.08,3.71.65,4.48,1.09,2,1.16,2.34,9.74-.33,11.1l-.31-1.48c2.03-1.09,1.37-2.69-.68-1.37-2.71,1.73,1.3,6.47,3.19,3.57,1.76-2.7,1.48-11.96-1.37-13.75-1.37-.86-4.13,2.64-4.14-1.86ZM200.48,137.49c.2.98,4.05,1,3.72-.4-.23-.96-3.76-1.62-3.72.4ZM205.01,141.4l-.17-1.24c-.41-.63-2.92-.33-3.09.69l1.07,1.33,2.19-.79ZM214.96,133.57l-2.32,2.45c-3.68-1.98-3.82.38-.62,1.93l-.81,3.19,1.07.68,1.04-2.47,2.89,2.48c.52-1.72-1.83-3.12-1.97-4.4-.1-.94,1.17-2.6.73-3.87ZM220.54,123.65c-1.16-.32-5.43,0-7.03,0-.8,0-.87,2.13.4,2.31.71.1,1.43-.73,2.32.35s.54,5.58,2.24,5.62l-.62-5.79,3.72-.84c.29-.39-.74-1.57-1.03-1.65ZM222.72,135.96c-.17.29-1.28.31-1.15,1.09l3.1,12.64c.43-.38.79-.83.84-1.43.21-2.23-2.58-11.48-2.2-12.13,1.24-.4,1.54-2.06,2.78-2.4,2.15-.58.61,2.15.92,3.25s2.81,1.91,2,4.02l-3.72-.41c.39,2.59,4.92,3.02,5.37.6s-1.01-2.81-1.46-4.3c-.63-2.04.1-5.88-3.6-4.88-.72.19-2.44,1.56-2.7,2.28-.18.5.06,1.25-.19,1.66ZM224.06,128.2c.67-.5,3.51,3.42,4.11,1.42.5-1.69-3.7-3.81-5.13-4.31-2,3-1.25,10.67,1.02,2.89ZM311.75,203.46h9.72c2.49,0,14.98-4.21,18.32-5.26,7.52-2.36,15.15-5.08,22.52-7.67,5.14-1.81,7.05-2.41,11.51-5.44,1.34-.91,4.4-1.71,4.11-3.74-.16-1.11-2.32.27-2.77.53-2.85,1.66-5.12,3.86-8.41,5.24-2.5,1.05-5.21,1.38-7.66,2.27-10.6,3.82-21.59,8.04-32.45,10.98-4.99,1.35-10.15,1.62-15.32,1.44l-3.31-36.81,9.96-.24c1.23,7.53,1.96,12.38,10.3,14.11,9.93,2.07,27.17-5.31,35.56-10.79,1.43-.93,4.08-3.86,5.69-4.23l17.72.34,7.21-1.46c-2.02-1.97-4.67-.58-6.82-.58-.91,0-1.69-.34-2.49-.35-4.45-.08-8.96-.07-13.43-.1,1.54-1.55,2.94-3.25,4.55-4.76,13.64-12.78,24.51-25.66,32.22-43.05,5.85-13.21,11.99-39.23-3.39-48.21-7.89-4.61-22.21-.61-29.38,4.28-5.16,3.52-9.46,8.77-13.97,12.91-8.03,7.37-16.62,14.66-23.75,22.99-2.78,3.25-4.69,7.16-7.25,10.56-.18,1.57,1.16,1.74,2.1.8.52-.52.04-1.21.43-1.97,5.22-10.07,16.24-19.19,24.38-26.94,11.71-11.15,22.51-24.54,40.74-22.98,9.8.84,15.1,11.68,15.34,20.55.66,23.81-17.3,49.08-33.14,65.48-1.5,1.55-9.95,9.73-11.16,10.12-3,.97-12.65.04-16.57.19-6.73.26-13.77,1.52-20.61.9l-11.87.18c-.47-.33-.42-1.14-.43-1.68-.12-7.13,1.66-19.91,3.47-26.76.49-1.85-.68-1.92-1.43-.57-1.36,2.43-1.23,8.21-1.63,11.16-.23,1.69-.77,3.36-.98,5.21-.46,4.09-.42,8.28-1.09,12.36l-10.71.46c.32-1.79-.35-3.49-.44-5.17-.62-11.36-.52-22.92-1.63-34.33-.11-1.15-.21-3.7-.39-4.48-.13-.57-2.02-1.43-2.01.74.01,5.66,1.98,13.13,1.99,19.04l.83,24.19-15.72.83c-.42-4.57-.34-8.9-.1-13.45.14-2.58.07-5.18.14-7.8.09-3.8,3.35-9.21,2.85-12.87l-.82-.2c-2.22,4.08-2.77,8.87-3.31,13.44-.62,5.24-1.04,11.3-.85,16.55.05,1.3.65,2.56.43,3.91l-30.61,1.25c-.09.94.01,1.96,1.02,2.31l29.59-1.49c.71,6.25,1.31,13.06,3.02,19.11,1.86,6.6,8.33,19.91,16.22,20.19.47.02.96.05,1.43-.05l.43-1.21c.28,4.35,2.02,7.93,3.32,11.99,1.01.16.92-.14.8-1-.24-1.57-2.82-10.2-2.04-10.99ZM289.15,293.04c-.75-.58-1.05-2.14-2.63-.46l3.3,3.3c-.71,1.06-4.04,3.26-3.71,4.54.67,2.59,4.32-2.89,5.16-2.68.6.48,3,4.69,3.94,3.72,1.04-1.08-3-4.63-2.85-5.52,1.12-1.63,3.43-2.69,3.68-4.81-.95-.86-4.41,2.61-5.17,3.29-.49-.57-1.13-.93-1.71-1.38ZM318.25,107.23c-2.13-1.57-5.1.5-6.87,1.81-.13.41.56,4.64.79,5.3.31.88,1.05,1.25,1.22,2.09.25,1.2.13,7.01.43,7.22,3.17-.03.83-5.65,1.24-6.2,2.77,2.52,7.43.86,5.75-2.98-1.14-2.6-.49-1.21-.86-3.73-.07-.46-1.39-3.26-1.71-3.5ZM318.11,84.1c-1.62,1.75-6.92,7.65-6.35,9.94,1.58,1.63,1.83-1.11,2.45-2.05,9.28-14.11,30.59-30.1,45.23-38.32,3.97-2.23,9.61-3.05,13.48-5.15.93-.51,1.55-.47,1.29-1.79-4,.48-7.8,1.98-11.45,3.65-15.46,7.07-33.09,21.24-44.65,33.72ZM325.4,117.44c-3.83,0-1.16,5.04-.2,7.03,2.05-.42.37-2.15.28-3.19-.09-1.13.56-2.46-.09-3.84ZM346.75,119.77c-4.5,6.58-8.47,17.4-7.72,25.61.13,1.41.72,3.97,1.65,4.97,3.08,3.29,7.08,2.38,10.88.91,2.56-.99,11.29-6.3,11.07-9.2-1.3-.9-1.29.62-2.05,1.25-3.99,3.36-12.7,9.99-17.96,6.33-3.35-2.33-1.78-11.65-.89-15.24,2.11-8.54,5.22-14.27,11.17-20.68,4.16-4.49,9.32-8.21,15.29-9.94,3.21-.93,7.06-1.52,7.57,2.82.36,3.09-.18,6.46-1.12,9.42-.65,2.06-2.64,5.17-2.92,7.01-.14.94.69.77,1.26.42,1.5-.91,4.33-10.84,4.49-12.88.12-1.6-.32-6.54-1.16-7.73-1.67-2.36-8.39-.8-10.65.05-8.29,3.09-14.07,9.81-18.9,16.88ZM351.1,131.56c-.69,1.49-.96,4.32.78,5.11,3.44,1.56,3.79-6.75-.78-5.11ZM364.32,115l-1.27,6.17,1.28-.24.79-3.06,3.72,2.89c.82-1.68-3.11-6.71-4.51-5.75ZM366.77,132.33c.29,3.47,3.83,2.4,4.13-.66.16-1.6-1-2.34-1.21-3.7-.25-1.59.56-3.37-.82-4.56-1.71-1.47-3.38.37-4.82,1.49l1.48,16.95h1.23c.56-1.28-.25-2.34-.36-3.57-.28-3.2-.77-7.24-.88-10.3-.07-1.84.51-4.24,2.7-3.1.81,2.34-.1,2.59-1.86,3.53-.02.63,5.01,1.94,2.21,4.32l-1.81-.39ZM400.56,183.09c.9-2.16-.85-3.4-1.04-4.74-.3-2.18,2.31-4.87-1.98-5.45-4.54-.62-6.43,2.54-6,6.79.08.81.78.56.99,1.12,1.41,3.82,1.4,7.92,1.95,11.9,1.25.16,1.62-.23,1.69-1.44.11-2-1-7.52-1.48-9.73-.52-2.41-2.15-3.69-.4-5.77.96-1.14,2.73-1.95,3.91-.63.39,1.78-2.5,1.49-2.5,2.89,0,1.66,3.76,1.55,2.92,3.93l-3.3-.82c-.15,2.31,1.11,3.79,3.52,3.32.29-.06,1.69-1.26,1.73-1.36ZM397.9,41.28c-.14-.26.1-4.98-.17-5.87-.09-.29-.36-.47-.57-.67l-.93,1.07,1.32,18.38c.53.77,5.72.28,7.07.37,2.08.14,8.39,2.4,5.71-1.58l-11.55-.86c-.5-3.48-1.08-7.08-.15-10.53-.04-.27-.7-.24-.74-.32ZM438.32,87.67c-.94-.19-1.14.69-1.37,1.31-1.5,4.14-2.17,9.71-3.37,14-4.57,16.36-12.49,32.45-24.2,44.86-1.67,1.77-5.33,4.44-6.44,5.97-.41.56-.77.86-.6,1.67,2.24-.67,4.15-2.27,5.79-3.91,16.7-16.67,22.56-34.25,28.74-56.48.45-1.61,2.93-6.33,1.45-7.44ZM404.12,186.24c.28,3.09,3.62,4.87,6.02,2.48.83-3.91-3.08-3.25-5.12-5.1-.47,0-.96,2.09-.91,2.62ZM421.36,37.63c-1.15-.2-2.06.83-2.66,1.68-2.92,4.14-1.99,10.05-.76,14.77.61,2.33,3.68,10.46,4.67,4.23l-1.61-.05c-1.72-4.39-3.43-9.31-2.44-14.13.45-2.2,3.4-3.9,2.8-6.5ZM425.21,45.17c-.19.38-.13.75-.12,1.15l1.23-.83c1.47,3.97,1.4,8.06,1.66,12.19.05.82.41,1.61.45,2.49.05,1.26-1.24,3.89.58,4.34.7-.34.87-3.04.88-3.86.07-4.44-1.01-9.93-1.87-14.29,1.31-.15,1.47-1.45,2.22-2.12,2.96-2.63,4.45,2.31,1.12,3.39l-.09.93c.33,1.72,3.73,1.98,2.85,4.51-1.82,2.09-1.7,1.11-3.67.28-.12,5.81,5.83,2.56,5.29-1.34-.06-.41-.63-2.21-.82-2.53-.34-.57-1.17-.66-1.19-.92-.05-.6.94-1.59,1.09-2.24.28-1.28-.88-4.81-2.52-4.98-2.41-.25-3.3,2.3-4.31,2.67-.42.15-.98-.24-1.4-.12-.09.03-1.36,1.19-1.4,1.27ZM440.39,38.05c-.11,2,1.75,3.12,2.68,4.97,2.09,4.14,2.77,11.37,1.83,15.87-.39,1.85-1.85,3.56-2.03,4.59-.25,1.37,1.93.59,2.58-.73,2.01-4.09,1.25-14.68-.3-18.9-.32-.87-3.38-7.22-4.75-5.79Z"/>
      <path d="M9.38,303.95c.71-.95,3.42-.67,3.67-.89s-.03-1.87,1.51-2.01c1.83-.16,6.35,1.12,8.66,1.26,12.04.73,24.41-1.34,36.42-2.08,2.51-.15,6,.39,8.27,0,.46-.08.82-.16.99-.65l-8.64-89.08c-3.39,2.2-6.53,5.07-9.87,7.29-.8.54-5.29,3.54-5.84,3.05-.16-.77.39-1,.86-1.41,1.8-1.57,4.87-3.08,6.96-4.62,1.25-.92,7.31-5.3,7.48-6.16-.21-3.47-.95-6.88-1.24-10.35-1.22-14.74-2.38-29.52-4.19-44.2-.6-4.9-2.08-9.77-2.02-14.73,1.17-.21.68.28.93.91,3.88,9.61,4.17,28.55,5.28,39.4.4,3.93,1.26,8,1.64,12,.44,4.58-.12,10.47,1.23,14.91.12.4-.24.81.61.58,1.71-.47,3.58-2.68,5.06-3.63,19.67-12.77,40.23-24.25,60.15-36.63,4.35-2.7,8.8-5.27,13.2-7.91l.37-.74c-1.62-2.35-1.7-5.6-.67-8.24.92-2.35,4.37-2.68,6.51-1.76,2,.85,2.26,2.5,3.3,4.16h.85s49.01-31.67,49.01-31.67c.63-.04,1.8,1.16,1.44,1.65-14.12,6.35-26.26,16.34-39.16,24.75-2.06,1.34-10.75,5.77-11.73,6.89-.58.67-.27,1.54-.64,2.26-1.66,3.26-3.9,3.19-7.2,2.71-22.95,14.58-46.58,28.09-69.64,42.46-3.68,2.3-7.15,5.05-10.82,7.37l8.52,90.93c7.36-.69,14.71-.66,22.1-.76,41.66-.55,83.58,4.48,125.33,4.13,22.45-.18,44.94-1.01,67.42-.03,1.28.06,7.88.56,8.35.95,2.31,1.92-1.85,2.02-3.01,1.98-23.45-.88-45.97-1.11-69.46-.83-18.72.23-37.51-.97-56.26-1.69-24.79-.95-49.31-2.58-74.04-2.03-6.7.15-13.44-.49-20.07.83l3.55,17.33-.87.85-5.03-18.16c-10.94.42-21.76,2.06-32.66,2.39-5.92.18-11.74.11-17.71-.38-1.37-.11-3.86-.83-5.02-.76-1.07.07-2.47,1.94-3.91.78v-.41Z"/>
      <path d="M9.38,52.93l23.58-10.96-23.58,4.76v-1.65l18.62-3.93-18.62-2.68v-2.07c6.87,1.65,14.09,2.22,21.1,2.27l-21.1-8.06v-1.65c2.94.94,5.61,2.63,8.47,3.73,4.07,1.57,11.38,4.37,15.41,5.27.72.16,1.45.11,2.18.09-8.11-5.95-16.9-11.09-26.06-15.3v-2.07l28.13,16.13c.2-2.54-1.28-4.75-1.66-7.23-.46-3.01-.66-7.59-.84-10.74-.35-6.28.48-12.66-1.22-18.83h2.07c1.59,9.88.58,20.07,2.11,29.94.33,2.1,1.08,5.86,1.63,7.88.12.45.14.76.6,1.04,4.1-2.02,8.04-4.45,12.12-6.48,14.91-7.4,30.63-13.27,45.94-19.82,7.86-3.36,18.67-9.61,26.83-11.23.76-.15,2.17-.34,2.59.53s-2.2.86-2.5,1.62c-24.35,8.09-47.54,19.91-71.22,29.7l-9.41,5.26c5.9-.28,11.5-2.16,17.29-3.17,15.86-2.78,31.89-4.68,47.82-7.19,5.29-.83,11.41-2.67,16.63-3.23.88-.09,1.76-.07,2.64-.05v1.23s-86.04,14.48-86.04,14.48c1.13.1,2.4-.15,3.51,0,40.86,5.75,81.91,9.05,122.86,14.05,8.53,1.04,21.75,1.39,29.58,3.92.82.26,1.74.52,2.06,1.45L49.92,43.01l12.71,5.28c17.96,6.49,36.06,12.61,53.45,20.59l.84,1.22-.95.56c-8.38-3.35-16.57-7.37-25-10.59-5.19-1.98-10.62-3.34-15.81-5.28-8.72-3.26-17.28-7.04-26.07-10.12,5.58,4.55,11.34,9.02,17.24,13.16,8.63,6.06,19.2,11.52,27.41,17.67.53.39,3.36,2.8,1.48,3.07l-53.86-36.72-.95-.08.82,10.33c-.66.13-.87-.17-1.19-.67-1.18-1.85-.63-6.86-1.36-8.98-.2-.57-.82-.86-1.38-.95l-27.92,13.08v-1.65Z"/>
      <path class="cls-2" d="M9.38,20.68V0h24.4c1.7,6.17.87,12.55,1.22,18.83.18,3.15.38,7.73.84,10.74.38,2.48,1.86,4.69,1.66,7.23L9.38,20.68Z"/>
      <path d="M9.38,379.21c.69.47,1.47.41,2.25.43,13.95.42,27.26-.65,40.95-1.28,5.88-.27,11.24,1.4,17.41,1.28,48.74-.99,97.82-.59,146.41.02,53.97.67,108.93,1.36,163.18,2.03H9.38v-2.48Z"/>
      <path class="cls-2" d="M9.38,22.74c9.16,4.21,17.95,9.34,26.06,15.3-.73.02-1.46.07-2.18-.09-4.03-.9-11.34-3.7-15.41-5.27-2.87-1.1-5.53-2.79-8.47-3.73v-6.2Z"/>
      <polygon class="cls-2" points="9.38 46.73 32.96 41.97 9.38 52.93 9.38 46.73"/>
      <polygon class="cls-2" points="9.38 38.46 28 41.14 9.38 45.07 9.38 38.46"/>
      <path class="cls-2" d="M9.38,30.6l21.1,8.06c-7.01-.05-14.23-.62-21.1-2.27v-5.79Z"/>
      <polygon points="509.88 380.04 509.88 381.69 456.52 381.69 509.88 380.04"/>
      <path d="M134.3,0h4.14c-.2,1.88.4,3.53,2.48,3.73.1,2.12-2.72.55-2.91-.82h-.59c-2.86,3.09-5.52.36-3.11-2.9ZM136.36,1.24c-.2-.26-1.41-.46-1.65.21-.71,2.01,2.38.72,1.65-.21Z"/>
      <path d="M311.75,203.46c-.78.79,1.81,9.42,2.04,10.99.13.86.21,1.16-.8,1-1.3-4.05-3.04-7.64-3.32-11.99l-.43,1.21c-.46.1-.95.06-1.43.05-7.89-.28-14.35-13.59-16.22-20.19-1.71-6.05-2.3-12.86-3.02-19.11l-29.59,1.49c-1-.36-1.11-1.37-1.02-2.31l30.61-1.25c.23-1.34-.38-2.6-.43-3.91-.19-5.25.23-11.32.85-16.55.54-4.57,1.1-9.36,3.31-13.44l.82.2c.49,3.66-2.76,9.07-2.85,12.87-.06,2.63,0,5.22-.14,7.8-.24,4.54-.32,8.88.1,13.45l15.72-.83-.83-24.19c0-5.92-1.98-13.38-1.99-19.04,0-2.17,1.88-1.31,2.01-.74.18.78.28,3.33.39,4.48,1.1,11.4,1.01,22.96,1.63,34.33.09,1.67.77,3.37.44,5.17l10.71-.46c.67-4.07.63-8.27,1.09-12.36.21-1.85.75-3.52.98-5.21.4-2.95.28-8.72,1.63-11.16.75-1.35,1.92-1.28,1.43.57-1.82,6.85-3.59,19.63-3.47,26.76,0,.54-.05,1.35.43,1.68l11.87-.18c6.84.62,13.88-.64,20.61-.9,3.93-.15,13.57.77,16.57-.19,1.21-.39,9.66-8.57,11.16-10.12,15.84-16.4,33.79-41.67,33.14-65.48-.24-8.88-5.54-19.72-15.34-20.55-18.23-1.56-29.03,11.84-40.74,22.98-8.14,7.75-19.16,16.87-24.38,26.94-.4.77.08,1.45-.43,1.97-.95.94-2.28.77-2.1-.8,2.56-3.41,4.47-7.31,7.25-10.56,7.13-8.33,15.72-15.62,23.75-22.99,4.51-4.14,8.81-9.39,13.97-12.91,7.17-4.89,21.49-8.89,29.38-4.28,15.37,8.98,9.24,35,3.39,48.21-7.71,17.4-18.58,30.27-32.22,43.05-1.61,1.51-3,3.21-4.55,4.76,4.47.04,8.99.02,13.43.1.8.01,1.58.35,2.49.35,2.15,0,4.8-1.39,6.82.58l-7.21,1.46-17.72-.34c-1.61.37-4.27,3.3-5.69,4.23-8.4,5.48-25.64,12.86-35.56,10.79-8.33-1.73-9.07-6.58-10.3-14.11l-9.96.24,3.31,36.81c5.17.18,10.32-.09,15.32-1.44,10.86-2.94,21.85-7.17,32.45-10.98,2.45-.88,5.16-1.22,7.66-2.27,3.29-1.38,5.55-3.58,8.41-5.24.45-.26,2.61-1.64,2.77-.53.3,2.04-2.77,2.83-4.11,3.74-4.46,3.04-6.38,3.64-11.51,5.44-7.37,2.59-15.01,5.31-22.52,7.67-3.34,1.05-15.83,5.26-18.32,5.26h-9.72ZM290.24,165.83c.87,1.19,0,2.29.1,3.41.11,1.23.92,2.61,1.11,3.86.97,6.3,1.48,11.81,4.09,17.83,1.46,3.36,8.02,12.92,12.21,12.15.3-.05.71-1.72,1.93-1.28l-3.77-36.75-15.68.78ZM320.02,165c-.05,10.07,6.54,13.75,15.82,12.3,7.78-1.22,17.33-5,24.17-8.92,2.01-1.15,4.28-2.57,5.93-4.2l-45.92.82Z"/>
      <path d="M346.75,119.77c4.83-7.07,10.61-13.79,18.9-16.88,2.26-.84,8.98-2.41,10.65-.05.84,1.19,1.29,6.13,1.16,7.73-.16,2.04-2.99,11.97-4.49,12.88-.57.35-1.4.52-1.26-.42.28-1.84,2.27-4.95,2.92-7.01.94-2.96,1.47-6.33,1.12-9.42-.5-4.34-4.36-3.75-7.57-2.82-5.97,1.73-11.12,5.45-15.29,9.94-5.94,6.41-9.06,12.14-11.17,20.68-.89,3.59-2.46,12.91.89,15.24,5.26,3.66,13.97-2.97,17.96-6.33.75-.63.75-2.16,2.05-1.25.23,2.9-8.5,8.21-11.07,9.2-3.8,1.47-7.8,2.38-10.88-.91-.93-.99-1.52-3.55-1.65-4.97-.75-8.21,3.22-19.03,7.72-25.61Z"/>
      <path d="M318.11,84.1c11.56-12.49,29.19-26.66,44.65-33.72,3.65-1.67,7.45-3.16,11.45-3.65.27,1.32-.36,1.28-1.29,1.79-3.87,2.11-9.51,2.93-13.48,5.15-14.64,8.22-35.94,24.21-45.23,38.32-.62.94-.87,3.68-2.45,2.05-.57-2.29,4.72-8.19,6.35-9.94Z"/>
      <path d="M438.32,87.67c1.48,1.11-1,5.82-1.45,7.44-6.18,22.23-12.03,39.81-28.74,56.48-1.64,1.63-3.55,3.23-5.79,3.91-.17-.81.19-1.11.6-1.67,1.11-1.52,4.77-4.2,6.44-5.97,11.71-12.41,19.63-28.5,24.2-44.86,1.2-4.3,1.87-9.86,3.37-14,.23-.63.42-1.5,1.37-1.31Z"/>
      <path d="M96.95,181.42c-1.55,1.27-5.47.3-7.13-.7-.66-2.4-2-7.32.4-9.13,1.81-1.36,7.59-1.81,8.7.86.84,2.01-.28,7.58-1.97,8.97Z"/>
      <path d="M74.18,202.46c.18-.09.09-.71.34-.66,1,1.05,2.58.59,3.69,1.28,3.08,1.9,2.09,9.02-1.29,9.79-4.73,1.08-6.35-2.09-6.32-6.32.02-3.31,1.32-2.95,3.58-4.09Z"/>
      <path d="M400.56,183.09c-.04.1-1.44,1.3-1.73,1.36-2.41.47-3.67-1.01-3.52-3.32l3.3.82c.84-2.39-2.92-2.27-2.92-3.93,0-1.39,2.89-1.1,2.5-2.89-1.18-1.31-2.95-.51-3.91.63-1.75,2.08-.13,3.36.4,5.77.48,2.21,1.6,7.73,1.48,9.73-.07,1.22-.44,1.61-1.69,1.44-.55-3.97-.54-8.08-1.95-11.9-.2-.55-.9-.31-.99-1.12-.43-4.25,1.45-7.42,6-6.79,4.29.59,1.68,3.28,1.98,5.45.18,1.34,1.94,2.58,1.04,4.74Z"/>
      <path d="M318.25,107.23c.32.23,1.64,3.04,1.71,3.5.38,2.52-.28,1.14.86,3.73,1.68,3.84-2.98,5.5-5.75,2.98-.41.55,1.93,6.17-1.24,6.2-.29-.21-.18-6.02-.43-7.22-.17-.83-.91-1.2-1.22-2.09-.23-.65-.92-4.88-.79-5.3,1.77-1.31,4.74-3.38,6.87-1.81ZM316.43,111.77c.65-.54,3.35-1.2.83-2.55s-3.89,3.37-2.62,5.45c.15.25,3.54,2.52,4.15,1.53.78-2-4.61-2.55-2.36-4.43Z"/>
      <path d="M425.21,45.17c.04-.08,1.31-1.24,1.4-1.27.42-.13.97.27,1.4.12,1.01-.36,1.9-2.91,4.31-2.67,1.64.17,2.8,3.69,2.52,4.98-.14.65-1.14,1.63-1.09,2.24.02.26.85.34,1.19.92.19.32.76,2.12.82,2.53.54,3.9-5.41,7.15-5.29,1.34,1.96.83,1.85,1.81,3.67-.28.88-2.53-2.52-2.79-2.85-4.51l.09-.93c3.33-1.07,1.84-6.01-1.12-3.39-.76.67-.91,1.97-2.22,2.12.86,4.36,1.94,9.85,1.87,14.29-.01.82-.18,3.51-.88,3.86-1.82-.45-.52-3.08-.58-4.34-.04-.87-.39-1.66-.45-2.49-.26-4.13-.19-8.22-1.66-12.19l-1.23.83c0-.4-.08-.76.12-1.15Z"/>
      <path d="M30.47,143.91l.83-1.89c2.69-.6,2.2,3.78,3.1,4.8.7.8,2.63-.11,2.72,1.44l-.43,1.27-2.07.39c.71,1.34.1,6.12-.84,7.02-2.99,2.87-7.65-2.81-4.3-6.78,1.42-1.69,4.16-1.57,3.07-4.58-.84-.15-1.08.74-1.88.83-2.87.34-3.88-5.67-4.72-7.66l1.01-.61c1.31.27,2.06,6.88,3.52,5.79ZM31.45,151.08c-3.59,3.83,1.82,7.66,1.94-.34.02-1.33-1.5-.13-1.94.34Z"/>
      <path d="M109.78,197.37c1.67,1.63.68,7.08-1.83,7.65-4.45,1.01-6.71-2.12-5.9-6.31.58-3.03,5.84-3.19,7.73-1.34Z"/>
      <path d="M119.91,179.59c-.22-.96-.17-2.16,0-3.12.9-4.96,9.92-3.96,8.5,2.3-.91,4.01-7.71,4.37-8.51.83Z"/>
      <path d="M397.9,41.28c.04.08.7.06.74.32-.92,3.45-.35,7.05.15,10.53l11.55.86c2.68,3.98-3.63,1.72-5.71,1.58-1.36-.09-6.54.4-7.07-.37l-1.32-18.38.93-1.07c.21.2.48.37.57.67.27.89.03,5.61.17,5.87Z"/>
      <path d="M222.72,135.96c.25-.42,0-1.16.19-1.66.26-.72,1.98-2.09,2.7-2.28,3.7-1,2.97,2.84,3.6,4.88.46,1.49,1.93,1.84,1.46,4.3s-4.98,1.99-5.37-.6l3.72.41c.81-2.11-1.69-2.9-2-4.02s1.23-3.83-.92-3.25c-1.24.33-1.54,2-2.78,2.4-.38.65,2.41,9.9,2.2,12.13-.06.6-.41,1.04-.84,1.43l-3.1-12.64c-.13-.79.98-.81,1.15-1.09Z"/>
      <path d="M366.77,132.33l1.81.39c2.8-2.38-2.23-3.68-2.21-4.32,1.77-.94,2.67-1.19,1.86-3.53-2.19-1.13-2.77,1.27-2.7,3.1.11,3.06.6,7.1.88,10.3.11,1.22.92,2.29.36,3.56h-1.23s-1.48-16.95-1.48-16.95c1.44-1.11,3.11-2.95,4.82-1.49,1.38,1.18.57,2.97.82,4.56.21,1.36,1.37,2.11,1.21,3.7-.3,3.07-3.85,4.13-4.13.66Z"/>
      <path d="M289.15,293.04c.58.45,1.23.81,1.71,1.38.76-.68,4.22-4.15,5.17-3.29-.24,2.13-2.56,3.18-3.68,4.81-.15.89,3.89,4.44,2.85,5.52-.94.97-3.34-3.24-3.94-3.72-.84-.21-4.49,5.27-5.16,2.68-.33-1.28,3-3.48,3.71-4.54l-3.3-3.3c1.58-1.68,1.88-.12,2.63.46Z"/>
      <path d="M440.39,38.05c1.37-1.43,4.43,4.92,4.75,5.79,1.56,4.21,2.32,14.8.3,18.9-.65,1.32-2.82,2.11-2.58.73.18-1.03,1.65-2.74,2.03-4.59.95-4.5.26-11.73-1.83-15.87-.93-1.85-2.79-2.97-2.68-4.97Z"/>
      <path d="M421.36,37.63c.6,2.6-2.35,4.3-2.8,6.5-.99,4.82.72,9.74,2.44,14.13l1.61.05c-.99,6.24-4.06-1.9-4.67-4.23-1.23-4.71-2.15-10.63.76-14.77.6-.85,1.51-1.88,2.66-1.68Z"/>
      <path d="M192.21,134.81c.01,4.5,2.76,1,4.14,1.86,2.86,1.79,3.13,11.05,1.37,13.75-1.89,2.91-5.9-1.84-3.19-3.57,2.06-1.31,2.71.28.68,1.37l.31,1.48c2.67-1.36,2.33-9.94.33-11.1-.77-.45-2.73.98-4.48-1.09-1.1-1.31-1.33-2.86.83-2.7Z"/>
      <path d="M220.54,123.65c.29.08,1.32,1.26,1.03,1.65l-3.72.84.62,5.79c-1.7-.03-1.32-4.49-2.24-5.62s-1.6-.25-2.32-.35c-1.27-.18-1.2-2.31-.4-2.31,1.6,0,5.87-.32,7.03,0Z"/>
      <path d="M404.12,186.24c-.05-.54.44-2.63.91-2.62,2.03,1.86,5.95,1.2,5.12,5.1-2.41,2.39-5.75.61-6.02-2.48Z"/>
      <path d="M214.96,133.57c.45,1.26-.83,2.93-.73,3.87.14,1.28,2.49,2.68,1.97,4.4l-2.89-2.48-1.04,2.47-1.07-.68.81-3.19c-3.2-1.55-3.06-3.91.62-1.93l2.32-2.45Z"/>
      <path d="M137.3,24.92c1.3-1.25,3.8.02,3.2,1.96-3.31-1.55-4.17,2.95-.62,2.92,1.03,0,3.12-1.76,3.93-.84.91,1.04-2.28,2.33-3.14,2.46-4.05.59-5.83-4.12-3.38-6.49Z"/>
      <path d="M105.63,82.42c.22.28,2.81,4.65,2.61,4.83-1.29.18-2.28-.88-2.49-2.07-2.86,3.24-5.37,1.46-4.45-2.6.66-2.91,2.97-1.84,4.33-.17ZM103.99,85.08c1.18-1.21.49-3.61-1.57-2.61-.86.61-.15,2.28.03,3.13.2.14,1.31-.29,1.54-.52Z"/>
      <path d="M224.06,128.2c-2.27,7.77-3.02.1-1.02-2.89,1.43.5,5.63,2.62,5.13,4.31-.6,2-3.44-1.92-4.11-1.42Z"/>
      <path d="M121.06,66.99c2.15-.07,1.25,5.19,1.66,5.79l1.39-.8c5.77,3.76-1.14,6.86-2.15,3.83-.59-1.77,0-6.57-.89-8.82ZM122.72,73.2c-.14.17.62,2,.79,2.22,1.27,1.61,2.4-1.94-.79-2.22Z"/>
      <path d="M364.32,115c1.4-.96,5.33,4.08,4.51,5.75l-3.72-2.89-.79,3.06-1.28.24,1.27-6.17Z"/>
      <path d="M351.1,131.56c4.57-1.64,4.22,6.67.78,5.11-1.74-.79-1.47-3.62-.78-5.11Z"/>
      <path d="M325.4,117.44c.64,1.38,0,2.71.09,3.84.08,1.05,1.77,2.78-.28,3.19-.96-1.99-3.64-7.02.2-7.03Z"/>
      <path d="M200.48,137.49c-.04-2.02,3.49-1.36,3.72-.4.33,1.4-3.51,1.38-3.72.4Z"/>
      <path d="M205.01,141.4l-2.19.79-1.07-1.33c.18-1.03,2.68-1.32,3.09-.69l.17,1.24Z"/>
      <path class="cls-2" d="M136.36,1.24c.73.93-2.36,2.21-1.65.21.24-.67,1.44-.47,1.65-.21Z"/>
      <path class="cls-2" d="M290.24,165.83l15.68-.78,3.77,36.75c-1.22-.44-1.63,1.22-1.93,1.28-4.19.77-10.75-8.79-12.21-12.15-2.62-6.01-3.12-11.53-4.09-17.83-.19-1.25-1-2.62-1.11-3.86-.1-1.12.77-2.22-.1-3.41Z"/>
      <path class="cls-2" d="M320.02,165l45.92-.82c-1.65,1.63-3.92,3.05-5.93,4.2-6.83,3.92-16.38,7.71-24.17,8.92-9.28,1.45-15.87-2.24-15.82-12.3Z"/>
      <path class="cls-2" d="M316.43,111.77c-2.26,1.89,3.13,2.43,2.36,4.43-.6.99-3.99-1.28-4.15-1.53-1.27-2.09.06-6.83,2.62-5.45s-.18,2.01-.83,2.55Z"/>
      <path class="cls-2" d="M31.45,151.08c.44-.47,1.96-1.68,1.94-.34-.12,8-5.53,4.17-1.94.34Z"/>
      <path class="cls-2" d="M103.99,85.08c-.23.23-1.34.66-1.54.52-.18-.85-.89-2.52-.03-3.13,2.06-1,2.75,1.4,1.57,2.61Z"/>
      <path class="cls-2" d="M122.72,73.2c3.2.28,2.07,3.83.79,2.22-.17-.22-.94-2.05-.79-2.22Z"/>
    </g>
  </g>
  <rect class="cls-2" y="24.29" width="205.16" height="94.66"/>
</svg>